<?xml version="1.0" encoding="UTF-8"?>
<svg width="24px" height="20px" viewBox="0 0 24 20" version="1.1" xmlns="http://www.w3.org/2000/svg" xmlns:xlink="http://www.w3.org/1999/xlink">
    <!-- Generator: sketchtool 63.1 (101010) - https://sketch.com -->
    <title>EC097AD1-6ECA-43CF-9AE6-692C179EBBDC</title>
    <desc>Created with sketchtool.</desc>
    <g id="Visual-Design" stroke="none" stroke-width="1" fill="none" fill-rule="evenodd">
        <g id="1-PROJECTS" transform="translate(-14.000000, -74.000000)" fill="#F8AE26" fill-rule="nonzero">
            <g id="work-2" transform="translate(14.000000, 74.000000)">
                <path d="M23.0909091,3.18234716 L23.0909091,17.9687633 C23.0909091,19.0887646 22.1840487,20 21.0694247,20 L21.0694247,20 L2.11239347,20 C0.997769442,20 0.0909090909,19.0887646 0.0909090909,17.9687633 L0.0909090909,17.9687633 L0.0909090909,3.182 L2.51370726,10.4865123 C2.77231512,11.2650869 3.46568892,11.8042312 4.26922906,11.868583 L4.4313098,11.875053 L8.22176847,11.875053 L8.22176847,12.5521319 C8.22176847,12.9262885 8.52323638,13.2292109 8.89559659,13.2292109 L8.89559659,13.2292109 L14.2862216,13.2292109 C14.6585818,13.2292109 14.9600497,12.9262885 14.9600497,12.5521319 L14.9600497,12.5521319 L14.9600497,11.875053 L18.7505084,11.875053 C19.6217471,11.875053 20.3922625,11.3169919 20.6679355,10.4865123 L20.6679355,10.4865123 L23.0909091,3.18234716 Z M13.4309091,10.4545455 L13.4309091,11.8181818 L9.29090909,11.8181818 L9.29090909,10.4545455 L13.4309091,10.4545455 Z M14.0585533,0 C15.1741779,0 16.0818523,0.879379735 16.0818523,1.96022727 L16.0818523,1.96022727 L16.0818523,2.61363636 L21.7109091,2.61363636 L19.1670321,10.0078791 C19.0748245,10.2751983 18.8173456,10.4545455 18.5268476,10.4545455 L18.5268476,10.4545455 L14.7329863,10.4545455 L14.7329863,9.80113636 C14.7329863,9.4400598 14.4312478,9.14772727 14.0585533,9.14772727 L14.0585533,9.14772727 L8.66308924,9.14772727 C8.29039477,9.14772727 7.98865623,9.4400598 7.98865623,9.80113636 L7.98865623,9.80113636 L7.98865623,10.4545455 L4.19479493,10.4545455 C3.90429693,10.4545455 3.64681811,10.2751983 3.55461043,10.0078791 L3.55461043,10.0078791 L1.01090909,2.61363636 L6.63979021,2.61363636 L6.63979021,1.96022727 C6.63979021,0.879379735 7.54746464,0 8.66308924,0 L8.66308924,0 Z M14.0585533,1.30681818 L8.66308924,1.30681818 C8.29092164,1.30681818 7.98865623,1.59966115 7.98865623,1.96022727 L7.98865623,1.96022727 L7.98865623,2.61363636 L14.7329863,2.61363636 L14.7329863,1.96022727 C14.7329863,1.59966115 14.4307209,1.30681818 14.0585533,1.30681818 L14.0585533,1.30681818 Z" id="Combined-Shape"></path>
            </g>
        </g>
    </g>
</svg>