<?xml version="1.0" encoding="UTF-8"?>
<svg width="24px" height="20px" viewBox="0 0 24 20" version="1.1" xmlns="http://www.w3.org/2000/svg" xmlns:xlink="http://www.w3.org/1999/xlink">
    <!-- Generator: sketchtool 63.1 (101010) - https://sketch.com -->
    <title>B90191F5-8DD2-4B5F-901C-5C02D53247FB</title>
    <desc>Created with sketchtool.</desc>
    <g id="Visual-Design" stroke="none" stroke-width="1" fill="none" fill-rule="evenodd">
        <g id="1-PROJECTS" transform="translate(-14.000000, -157.000000)" fill="#C5C6C7" fill-rule="nonzero">
            <g id="iconfinder_user3_216779" transform="translate(14.000000, 157.000000)">
                <path d="M23.6052632,20 C23.6052632,20 23.5599532,15.6968182 23.2938432,15.2509091 C22.8980132,14.5865909 21.9761732,14.13 20.2647432,13.4234091 C18.5590632,12.7186364 18.0137332,12.1243182 18.0137332,10.8515909 C18.0137332,10.0870455 18.5344532,10.3370455 18.7635332,8.93818182 C18.8582932,8.3575 19.3182932,8.92840909 19.4063832,7.60363636 C19.4063832,7.07545455 19.1552232,6.94386364 19.1552232,6.94386364 C19.1552232,6.94386364 19.2828732,6.16272727 19.3325532,5.56113636 C19.3946532,4.81159091 18.9502932,2.87590909 16.5829032,2.87590909 C14.2150532,2.87590909 13.7711532,4.81181818 13.8332532,5.56113636 C13.8831632,6.16272727 14.0103532,6.94386364 14.0103532,6.94386364 C14.0103532,6.94386364 13.7596532,7.07545455 13.7596532,7.60363636 C13.8477432,8.92840909 14.3072832,8.3575 14.4025032,8.93818182 C14.6311232,10.3370455 15.1523032,10.0872727 15.1523032,10.8515909 C15.1523032,11.7168182 14.8988432,12.2686364 14.2007932,12.755 C17.9274832,14.5984091 18.4270432,14.9740909 18.4270432,16.6220455 L18.4270432,20 L23.6052632,20 Z M12.3621732,14.0629545 C10.0872432,13.1234091 9.36044316,12.3309091 9.36044316,10.6343182 C9.36044316,9.61545455 10.0550432,9.94818182 10.3600232,8.0825 C10.4862932,7.30886364 11.0999332,8.06977273 11.2172332,6.30318182 C11.2172332,5.59909091 10.8825832,5.42409091 10.8825832,5.42409091 C10.8825832,5.42409091 11.0527832,4.3825 11.1192532,3.58045455 C11.2018232,2.58113636 10.6098032,0 7.45259316,0 C4.29607316,0 3.70359316,2.58113636 3.78662316,3.58045455 C3.85309316,4.3825 4.02283316,5.42409091 4.02283316,5.42409091 C4.02283316,5.42409091 3.68818316,5.59909091 3.68818316,6.30318182 C3.80594316,8.06977273 4.41912316,7.30886364 4.54585316,8.0825 C4.85083316,9.94795455 5.54543316,9.61522727 5.54543316,10.6343182 C5.54543316,12.3309091 4.81817316,13.1234091 2.54370316,14.0629545 C1.85048316,14.3493182 0.605263158,14.7927273 0.605263158,15.8597727 L0.605263158,20 L16.5831332,20 C16.5831332,20 16.5831332,17.5509091 16.5831332,16.8956818 C16.5831332,15.9225 14.6437732,15.0056818 12.3621732,14.0629545 Z" id="Shape"></path>
            </g>
        </g>
    </g>
</svg>