<?xml version="1.0" encoding="UTF-8"?>
<svg width="21px" height="21px" viewBox="0 0 21 21" version="1.1" xmlns="http://www.w3.org/2000/svg" xmlns:xlink="http://www.w3.org/1999/xlink">
    <!-- Generator: sketchtool 63.1 (101010) - https://sketch.com -->
    <title>3683073F-7275-445C-ADAA-10291934BE44</title>
    <desc>Created with sketchtool.</desc>
    <g id="Visual-Design" stroke="none" stroke-width="1" fill="none" fill-rule="evenodd">
        <g id="1-PROJECTS" transform="translate(-16.000000, -115.000000)" fill="#C5C6C7" fill-rule="nonzero">
            <g id="money" transform="translate(16.000000, 115.500000)">
                <path d="M15.6280966,9.60771704 C18.5463081,9.60771704 20.9170824,11.9314469 20.9170824,14.8017578 C20.9170824,17.6720686 18.5485109,19.9978992 15.6302776,19.9978992 C14.0032329,19.9978992 12.5484891,19.2733333 11.577933,18.1372133 C10.8080311,17.2347481 10.3434728,16.0707395 10.3434728,14.8017363 C10.3434728,12.7974491 11.4994161,11.0568274 13.1918915,10.1908039 C13.9203539,9.81779207 14.7491434,9.60771704 15.6280966,9.60771704 Z M15.839656,11.3204716 L15.4492525,11.3204716 C15.3492888,11.3204716 15.2644712,11.3874598 15.2389754,11.4780179 L15.23115,11.5348339 L15.23115,11.6570204 C14.8407465,11.721329 14.533222,11.8477814 14.3129384,12.0385638 C13.9334183,12.366538 13.7393288,12.7974062 13.7393288,13.3225938 C13.7393288,13.6184352 13.8069406,13.886388 13.9378021,14.1221865 C14.0708228,14.3622508 14.2627749,14.550911 14.5092307,14.6859378 C14.690801,14.7856324 14.8723836,14.8660222 15.0521107,14.9262122 L15.23115,14.9796356 L15.23115,16.5937621 C15.1286418,16.5423151 15.0370388,16.4630011 14.9519788,16.3579636 C14.8451085,16.2250804 14.7687727,16 14.7229711,15.6891747 C14.7142252,15.6312755 14.6815099,15.5798714 14.6335491,15.5455305 C14.6000922,15.5226795 14.5627773,15.5093462 14.5241699,15.506172 L14.4656102,15.5091104 L13.8003975,15.6312755 C13.6913463,15.6505681 13.6150104,15.7470311 13.6237127,15.8563558 C13.6520878,16.227224 13.750234,16.5487674 13.9203539,16.8124544 C14.0926331,17.0782208 14.3020333,17.2733333 14.5419461,17.3954984 C14.6826222,17.4662379 14.8478471,17.5237018 15.035753,17.567917 L15.23115,17.607717 L15.23115,18.0750268 C15.23115,18.1732762 15.299307,18.2566393 15.3914452,18.2816978 L15.4492525,18.2893891 L15.839656,18.2893891 C15.9396196,18.2893891 16.0244373,18.2224009 16.0499331,18.1318427 L16.0577585,18.0750268 L16.0577585,17.6120043 C16.4830584,17.5520043 16.8429275,17.3740622 17.1286418,17.0804073 C17.4601576,16.7395498 17.6281184,16.3108253 17.6281184,15.8113826 C17.6281184,15.5798928 17.5866789,15.3612219 17.508162,15.1618864 C17.4274641,14.9582422 17.3096669,14.7803001 17.159198,14.6323901 C17.0108883,14.4866452 16.8189581,14.3622937 16.5877694,14.2615648 C16.5075077,14.2272669 16.3797868,14.1874812 16.2012569,14.1389153 L16.0577803,14.1007931 L16.0577803,12.7009861 C16.1079221,12.7309968 16.1493834,12.7652947 16.186439,12.8060236 C16.2824259,12.908896 16.3456756,13.0696677 16.378391,13.2818864 C16.392913,13.3801358 16.472578,13.4516047 16.5681488,13.462762 L16.627006,13.4619507 L17.3096451,13.3612433 C17.4274204,13.3440729 17.5102994,13.2347481 17.4928512,13.1189925 C17.4274204,12.6538264 17.2246069,12.2829796 16.8952503,12.0128832 C16.7207683,11.8688146 16.5058204,11.7645453 16.2537344,11.6989779 L16.0577585,11.6570418 L16.0577585,11.5348339 C16.0577585,11.4169346 15.9596124,11.3204716 15.839656,11.3204716 Z M3.65644988,8.72881029 C3.86956719,8.72881029 4.07146779,8.81703655 4.21408013,8.96912302 L4.28022305,9.05037513 L6.26936155,11.8842444 L6.76009219,10.8660236 L5.9618152,9.21543408 C5.86170615,9.01286174 5.98772578,8.78075434 6.19995697,8.73635859 L6.27370179,8.72881029 L7.87239317,8.72881029 C8.10009219,8.72881029 8.25889263,8.94066045 8.20887736,9.14711408 L8.18427976,9.21543408 L7.38600277,10.8660236 L7.88763854,11.9013719 L9.94438881,9.04392283 C10.0677538,8.87488287 10.2536279,8.76411444 10.4594196,8.73591612 L10.5637781,8.72881029 L11.9574532,8.72881029 C12.533222,8.72881029 13.0196124,9.11037513 13.1657192,9.63129689 C12.557235,9.91211147 12.0054357,10.2936549 11.5256102,10.7652519 C10.9890562,11.2926259 10.5702994,11.9056806 10.275861,12.5873312 C9.97272033,13.2947267 9.81784574,14.0449946 9.81784574,14.8188853 C9.81784574,15.5905895 9.97269852,16.3429796 10.2780638,17.0482529 C10.4056374,17.3424491 10.5553062,17.6234057 10.727981,17.8901913 L10.9083583,18.1522186 L0.938892627,18.1522186 L0.938892627,9.96141479 C0.938892627,9.32234727 1.43154019,8.79818755 2.06460189,8.73516394 L2.19298205,8.72881029 L3.65644988,8.72881029 Z M15.7163121,15 C15.8922531,15.0586274 15.9781779,15.1126406 16.0211402,15.1512369 C16.1029733,15.2268554 16.141844,15.3287088 16.141844,15.4629855 C16.141844,15.6250251 16.0804692,15.7561999 15.9556738,15.8626831 C15.8861157,15.9228383 15.806308,15.9691353 15.7163121,16 L15.7163121,16 Z M15.141844,13 L15.141844,14 C15.0195917,13.9537367 14.9279025,13.9038968 14.8667764,13.8469751 C14.7657067,13.7562278 14.7163121,13.6423488 14.7163121,13.5 C14.7163121,13.3576512 14.7750872,13.238452 14.8973394,13.1352313 C14.9631676,13.0764947 15.0454528,13.0320107 15.141844,13 L15.141844,13 Z M7.05230593,0 C9.28131356,0 11.0937454,1.78135048 11.0937454,3.9721329 C11.0937454,6.16291533 9.28131356,7.94426581 7.05230593,7.94426581 C4.8232983,7.94426581 3.01086645,6.16291533 3.01086645,3.9721329 C3.01086645,1.78135048 4.8232983,0 7.05230593,0 Z" id="Combined-Shape"></path>
            </g>
        </g>
    </g>
</svg>